<svg width="22" height="22" viewBox="0 0 22 22" fill="none" xmlns="http://www.w3.org/2000/svg">
<g clip-path="url(#clip0_1_60)">
<path fill-rule="evenodd" clip-rule="evenodd" d="M22 11.0198C22 12.0869 20.24 12.884 19.91 13.843C19.58 14.802 20.515 16.5443 19.91 17.3413C19.305 18.1384 17.38 17.8142 16.5275 18.4222C15.675 19.0299 15.4411 20.9079 14.41 21.2454C13.3786 21.583 12.1139 20.1645 11.0139 20.1645C9.91393 20.1645 8.6075 21.5156 7.6175 21.2454C6.6275 20.9749 6.3525 19.0299 5.5 18.4222C4.6475 17.8142 2.75 18.1791 2.1175 17.3417C1.485 16.5039 2.43357 14.8561 2.1175 13.843C1.80107 12.8295 0 12.0866 0 11.0198C0 9.95222 1.76 9.15553 2.09 8.19655C2.42 7.2372 1.485 5.49488 2.09 4.69783C2.695 3.90078 4.63357 4.22537 5.5 3.6173C6.36643 3.00924 6.5725 1.13166 7.60393 0.753697C8.635 0.375008 9.9 1.87425 11 1.87425C12.1 1.87425 13.4064 0.523598 14.3964 0.793729C15.3864 1.06386 15.6475 3.00888 16.5 3.61694C17.3525 4.22465 19.25 3.86002 19.8825 4.69747C20.515 5.53491 19.5661 7.18311 19.8825 8.19583C20.1986 9.20927 22 9.95258 22 11.0198Z" fill="#3BA55C"/>
<path d="M10.3836 15.9668L5.7431 12.5154L7.10784 10.6742L9.83767 12.7451L14.806 6.26123L16.6621 7.61477L10.3836 15.9668Z" fill="white"/>
</g>
<defs>
<clipPath id="clip0_1_60">
<rect width="22" height="22" fill="white"/>
</clipPath>
</defs>
</svg>
