<svg width="22" height="22" viewBox="0 0 22 22" fill="none" xmlns="http://www.w3.org/2000/svg">
<g clip-path="url(#clip0_1_66)">
<path fill-rule="evenodd" clip-rule="evenodd" d="M21.9952 10.86C21.9952 11.9272 20.2356 12.7239 19.906 13.6829C19.576 14.6415 20.511 16.3838 19.906 17.1805C19.301 17.9776 17.3763 17.6533 16.5242 18.261C15.6717 18.8687 15.4381 20.746 14.4071 21.0835C13.376 21.4215 12.1114 20.0034 11.0117 20.0034C9.91173 20.0034 8.60567 21.354 7.61603 21.0835C6.62603 20.8138 6.35103 18.8691 5.4989 18.261C4.6464 17.6533 2.74927 18.018 2.11713 17.1805C1.48463 16.3434 2.4332 14.6956 2.11713 13.6829C1.80033 12.6698 0 11.9268 0 10.86C0 9.7932 1.75963 8.99651 2.08963 8.03753C2.41963 7.07854 1.48463 5.33622 2.08963 4.53953C2.69463 3.74248 4.63283 4.06707 5.4989 3.459C6.36497 2.8513 6.57103 0.974085 7.6021 0.596118C8.63317 0.21779 9.8978 1.71704 10.9974 1.71704C12.0974 1.71704 13.4035 0.36638 14.3931 0.636511C15.3831 0.906642 15.6442 2.8513 16.4967 3.459C17.3488 4.06707 19.246 3.70245 19.8785 4.53953C20.5106 5.37697 19.562 7.02444 19.8785 8.03753C20.1945 9.05025 21.9952 9.7932 21.9952 10.86Z" fill="#5865F2"/>
<path d="M18.2758 10.7969C18.2758 11.3357 18.0044 11.8749 17.5974 12.1443L13.3907 14.8391C12.5767 15.3779 11.7623 15.6473 10.8123 15.6473C10.4053 15.6473 10.1339 15.6473 9.72693 15.5128C8.6416 15.2434 7.8276 14.7042 7.1489 13.896C7.01323 13.6262 7.1489 13.3568 7.28456 13.2223L9.1839 12.0094C9.31957 11.8749 9.59127 11.8749 9.72693 12.0094C9.99827 12.1443 10.2696 12.2788 10.4053 12.4133C10.9479 12.4133 11.3549 12.4133 11.7619 12.1443L12.712 11.6051L15.4257 9.71886L15.8327 9.44945C16.511 9.04516 17.5967 9.18004 18.0041 9.85339C18.2754 10.2577 18.2758 10.5271 18.2758 10.7969ZM14.8892 8.35162L12.9763 9.57171C12.7028 9.70696 12.566 9.70696 12.2929 9.57171C12.1561 9.43611 11.8829 9.3005 11.7462 9.16489C11.1995 9.02929 10.7892 9.16489 10.3792 9.43611L9.69577 9.84257L6.2788 12.1472C5.45856 12.5536 4.50193 12.418 4.092 11.6047C3.5453 10.9267 3.81846 9.97817 4.50193 9.43611L8.60237 6.72506C9.69577 6.04739 11.0627 5.77653 12.2929 6.04739C13.3863 6.3186 14.2061 6.86066 14.8896 7.67394C15.1631 7.94516 15.0264 8.21601 14.8896 8.35198L14.8892 8.35162Z" fill="white"/>
</g>
<defs>
<clipPath id="clip0_1_66">
<rect width="22" height="22" fill="white"/>
</clipPath>
</defs>
</svg>
